<svg fill="#000000" height="200px" width="200px" version="1.1" id="Layer_1" xmlns="http://www.w3.org/2000/svg" xmlns:xlink="http://www.w3.org/1999/xlink" viewBox="0 0 512 512" xml:space="preserve"><g id="SVGRepo_bgCarrier" stroke-width="0"></g><g id="SVGRepo_tracerCarrier" stroke-linecap="round" stroke-linejoin="round"></g><g id="SVGRepo_iconCarrier"> <g> <g> <path d="M381.19,38.629c-5.77,0-10.449,4.678-10.449,10.449v24.068c0,5.771,4.678,10.449,10.449,10.449 c5.77,0,10.449-4.678,10.449-10.449V49.078C391.639,43.307,386.96,38.629,381.19,38.629z"></path> </g> </g> <g> <g> <path d="M494.473,104.033c-2.885-4.997-9.276-6.71-14.273-3.824l-20.843,12.034c-4.998,2.886-6.71,9.276-3.824,14.273 c1.936,3.352,5.447,5.226,9.059,5.226c1.772,0.001,3.569-0.451,5.214-1.401l20.842-12.034 C495.646,115.42,497.359,109.03,494.473,104.033z"></path> </g> </g> <g> <g> <path d="M490.649,220.573l-16.328-9.427c-4.999-2.886-11.387-1.173-14.273,3.824s-1.173,11.388,3.824,14.273l16.328,9.427 c1.646,0.95,3.442,1.401,5.214,1.401c3.611,0,7.123-1.874,9.059-5.226C497.359,229.849,495.647,223.459,490.649,220.573z"></path> </g> </g> <g> <g> <path d="M342.09,80.821l-12.034-20.844c-2.886-4.997-9.272-6.709-14.273-3.824c-4.998,2.885-6.71,9.276-3.824,14.273 l12.034,20.844c1.936,3.352,5.447,5.225,9.059,5.225c1.772,0,3.568-0.451,5.214-1.401C343.263,92.21,344.976,85.819,342.09,80.821 z"></path> </g> </g> <g> <g> <path d="M446.593,56.153c-5-2.885-11.389-1.173-14.273,3.824l-12.034,20.842c-2.885,4.998-1.173,11.389,3.825,14.274 c1.646,0.95,3.442,1.401,5.214,1.401c3.611,0,7.124-1.873,9.059-5.225l12.033-20.844 C453.303,65.428,451.591,59.038,446.593,56.153z"></path> </g> </g> <g> <g> <path d="M501.551,158.992h-24.067c-5.77,0-10.449,4.678-10.449,10.449c0,5.77,4.678,10.449,10.449,10.449h24.067 c5.77,0,10.449-4.678,10.449-10.449C512,163.67,507.322,158.992,501.551,158.992z"></path> </g> </g> <g> <g> <path d="M445.445,200.364c4.63-9.613,7.065-20.193,7.065-30.924c0-39.327-31.995-71.321-71.321-71.321 c-14.663,0-28.587,4.369-40.525,12.649c-5.417-1.213-11.038-1.873-16.815-1.873c-42.422,0-76.933,34.512-76.933,76.932 c0,4.014,0.304,7.983,0.91,11.89c-22.803,0.202-41.291,18.814-41.291,41.665c0,7.56,2.034,14.649,5.568,20.767h-17.056 c-5.77,0-10.449,4.678-10.449,10.449s4.679,10.449,10.449,10.449h210.913c27.583,0,50.025-22.441,50.025-50.024 C455.984,219.476,452.041,208.839,445.445,200.364z M381.19,119.016c27.804,0,50.423,22.62,50.423,50.423 c0,5.824-1.028,11.58-2.978,17.014c-6.813-3.481-14.516-5.456-22.675-5.456c-1.786,0-3.557,0.093-5.311,0.279 c-1.469-25.05-14.984-46.913-34.816-59.879C370.738,119.829,375.894,119.016,381.19,119.016z M405.96,260.148H261.223h-13.023 c-11.452,0-20.768-9.316-20.768-20.767s9.316-20.768,20.768-20.768c3.366,0,6.581,0.784,9.555,2.331 c3.906,2.032,8.672,1.396,11.909-1.592c3.237-2.987,4.252-7.685,2.538-11.744c-2.912-6.894-4.389-14.222-4.389-21.781 c0-30.897,25.138-56.034,56.036-56.034c30.898,0,56.035,25.137,56.035,56.034c0,2.494-0.182,5.083-0.542,7.695 c-0.517,3.767,1.052,7.518,4.098,9.795s7.089,2.718,10.555,1.153c3.781-1.707,7.808-2.574,11.966-2.574 c16.061,0,29.127,13.066,29.127,29.127C435.087,247.082,422.021,260.148,405.96,260.148z"></path> </g> </g> <g> <g> <path d="M341.893,340.417c-12.55,0-23.823,5.544-31.52,14.304c-7.698-8.759-18.97-14.304-31.52-14.304 c-5.77,0-10.449,4.678-10.449,10.449c0,5.771,4.679,10.449,10.449,10.449c11.618,0,21.071,9.452,21.071,21.071 c0,5.771,4.679,10.449,10.449,10.449s10.449-4.678,10.449-10.449c0-11.619,9.453-21.071,21.071-21.071 c5.77,0,10.449-4.678,10.449-10.449S347.664,340.417,341.893,340.417z"></path> </g> </g> <g> <g> <path d="M73.49,170.395c-12.55,0-23.823,5.544-31.52,14.304c-7.698-8.759-18.97-14.304-31.52-14.304 C4.679,170.395,0,175.073,0,180.844s4.679,10.449,10.449,10.449c11.618,0,21.071,9.452,21.071,21.071 c0,5.771,4.679,10.449,10.449,10.449s10.449-4.678,10.449-10.449c0-11.619,9.453-21.071,21.071-21.071 c5.77,0,10.449-4.678,10.449-10.449S79.259,170.395,73.49,170.395z"></path> </g> </g> <g> <g> <path d="M143.283,252.658c-12.55,0-23.823,5.544-31.52,14.304c-7.698-8.759-18.97-14.304-31.52-14.304 c-5.77,0-10.449,4.678-10.449,10.449s4.679,10.449,10.449,10.449c11.618,0,21.071,9.452,21.071,21.071 c0,5.771,4.679,10.449,10.449,10.449s10.449-4.678,10.449-10.449c0-11.619,9.453-21.071,21.071-21.071 c5.77,0,10.449-4.678,10.449-10.449C153.732,257.336,149.053,252.658,143.283,252.658z"></path> </g> </g> <g> <g> <path d="M333.093,452.472h-0.137c-5.77,0-10.449,4.678-10.449,10.449c0,5.771,4.679,10.449,10.449,10.449h0.137 c5.77,0,10.449-4.678,10.449-10.449C343.542,457.15,338.864,452.472,333.093,452.472z"></path> </g> </g> <g> <g> <path d="M299.153,452.473h-75.65c-0.465-20.044-16.464-36.316-36.405-37.194c0.417-3.093,0.628-6.227,0.628-9.391 c0-38.263-31.128-69.391-69.391-69.391c-36.471,0-66.459,28.28-69.189,64.065c-1.195-0.093-2.398-0.14-3.608-0.14 C20.428,400.42,0,420.848,0,445.955c0,7.696,1.964,15.313,5.681,22.026c1.841,3.325,5.341,5.389,9.142,5.389l284.33,0.001 c5.77,0,10.449-4.678,10.449-10.449C309.602,457.151,304.923,452.473,299.153,452.473z M21.775,452.471 c-0.579-2.114-0.877-4.308-0.877-6.516c0-13.585,11.053-24.638,24.639-24.638c3.518,0,6.922,0.732,10.12,2.177 c3.465,1.565,7.508,1.125,10.555-1.151c3.046-2.276,4.616-6.027,4.099-9.794c-0.311-2.261-0.468-4.502-0.468-6.661 c0-26.74,21.754-48.494,48.492-48.494c26.74,0,48.494,21.754,48.494,48.494c0,6.541-1.278,12.883-3.798,18.849 c-1.715,4.057-0.699,8.754,2.537,11.743c3.236,2.987,7.996,3.626,11.908,1.594c2.468-1.283,5.135-1.934,7.927-1.934 c9.198,0,16.736,7.247,17.204,16.332H21.775z"></path> </g> </g> </g></svg>
